# xmcd
#
# Track frame offsets:
#      150
#      14102
#      27852
#      46387
#      58880
#      76900
#      90582
#      106700
#      122362
#      137480
#      155327
#      177145
#      187295
#      203245
#      216750
#      238005
# 
# Disc length: 3507 seconds
#
# Revision: 2
# Processed by: cddbd v1.4PL0 Copyright (c) Steve Scherf et al.
#
# Submitted via: FreeRIP 1.20
#
DISCID=d50db110
DTITLE=Varios - Rock Nacional - La colecci n Vol 35
DYEAR=1900
DGENRE=Rock
TTITLE0=Spinetta Jade - Contra todos los males de este mundo - 
TTITLE1=Man Ray - Tierra sagrada - 
TTITLE2=Miguel Abuelo - Mariposa de madera - 
TTITLE3=Virus - El Doctor - 
TTITLE4=Los Visitantes - Playas oscuras - 
TTITLE5=Aeroblus - Completamente nervioso - 
TTITLE6=Luca Prodan - Una peque a muerte - 
TTITLE7=Celeste Carballo - Desconf o de la vida - 
TTITLE8=Litto Nebbia - Canci n de la vida - 
TTITLE9=Nito Mestre - Escondo mis ojos al sol - 
TTITLE10=Vargas Blues band - Blues Latino - 
TTITLE11=Viuda e hijas de Roque Enrol - Bikini a lunares amarillos diminutos - 
TTITLE12=Ruben Goldin - Destiempo - 
TTITLE13=Pastoral - Pele ndose - 
TTITLE14=Mercedes Sosa - Y dale alegr a a mi coraz n - 
TTITLE15=Raul Porchetto - Como un Angel - 
EXTD=
EXTT0=
EXTT1=
EXTT2=
EXTT3=
EXTT4=
EXTT5=
EXTT6=
EXTT7=
EXTT8=
EXTT9=
EXTT10=
EXTT11=
EXTT12=
EXTT13=
EXTT14=
EXTT15=
PLAYORDER=
